# xmcd CD database file
#
# Track frame offsets:
#	150
#	19762
#	38637
#	57838
#	78271
#	92952
#	111077
#	124798
#	143957
#	158138
#	176533
#	194043
#	213310
#	226825
#	241288
#	257344
#
# Disc length: 3661 seconds
#
# Revision: 1
# Processed by: cddbd v1.5.2PL0 Copyright (c) Steve Scherf et al.
# Submitted via: CDex 1.60beta1-cs1
#
DISCID=d10e4b10
DTITLE=Dion Celine - On ne change pas [CD2)
DYEAR=2005
DGENRE=Pop
TTITLE0=Celine Dion - Le ballet (By Tita)
TTITLE1=Celine Dion - Contre nature (By Tita)
TTITLE2=Celine Dion - Je danse dans ma tete (By Tita
TTITLE3=Celine Dion - Le blues du businessman (By Ti
TTITLE4=Celine Dion - Le loup, la biche et le cheval
TTITLE5=Celine Dion - D'amour ou d'amitie (By Tita)
TTITLE6=Celine Dion - Mon ami m'a quittee (By Tita)
TTITLE7=Celine Dion - Les chemins de ma maison (By T
TTITLE8=Celine Dion - Ne partez pas sans moi (Grand
TTITLE9=Celine Dion - Je ne veux pas (By Tita)
TTITLE10=Celine Dion - Zora sourit (By Tita)
TTITLE11=Celine Dion - Destin (By Tita)
TTITLE12=Celine Dion - Tellement j'ai d'amour pour to
TTITLE13=Celine Dion - Ma nouvelle France (Inédit) (B
TTITLE14=Celine Dion - Les derniers seront les premie
TTITLE15=Celine Dion - Ce n'était qu'un reve (By Tita
EXTD=YEAR: 2005
EXTT0=
EXTT1=
EXTT2=
EXTT3=
EXTT4=
EXTT5=
EXTT6=
EXTT7=
EXTT8=
EXTT9=
EXTT10=
EXTT11=
EXTT12=
EXTT13=
EXTT14=
EXTT15=
PLAYORDER=
